#!OML:ASF F:\VICON\USERDATA\INSTALL\rory3\rory3.ASF
:FULLY-SPECIFIED
:DEGREES
140
root 0.724518 20.0825 -8.42045 9.16957 3.79668 1.19034
lowerback 1.11785 -1.19576 -1.65659
upperback -0.745145 -1.58851 2.85181
thorax -1.26548 -0.767091 3.89681
lowerneck -15.5766 -3.77671 -8.9658
upperneck 26.73 -4.56692 5.85547
head 11.657 -2.24271 3.03008
rclavicle 2.68359e-015 7.95139e-015
rhumerus -66.554 17.3445 -83.3525
rradius 79.9983
rwrist 1.25584
rhand -10.4577 19.3172
rfingers 7.12502
rthumb 15.5429 -10.0782
lclavicle 2.68359e-015 7.95139e-015
lhumerus -58.8738 -5.36271 82.1863
lradius 81.0594
lwrist 8.58291
lhand -22.5611 23.4883
lfingers 7.12502
lthumb 3.86694 53.4329
rfemur -2.23001 6.10393 21.9126
rtibia 26.5748
rfoot 34.0569 0.35463
rtoes 15.4583
lfemur -5.38161 -5.32844 -21.1684
ltibia 28.2062
lfoot 36.5096 -7.49682
ltoes -0.246343
141
root 0.716388 20.3093 -8.23732 8.81768 3.92411 1.41986
lowerback 0.792774 -1.138 -1.90953
upperback -0.659522 -1.51577 2.77268
thorax -0.996598 -0.734382 3.9472
lowerneck -15.7209 -3.73237 -8.8553
upperneck 26.7874 -4.53279 5.8885
head 11.7023 -2.20976 3.02898
rclavicle 6.4605e-015 -8.74653e-015
rhumerus -67.7273 17.5139 -83.0965
rradius 81.6492
rwrist 1.87074
rhand -8.95914 17.9407
rfingers 7.12502
rthumb 16.9858 -11.3367
lclavicle 6.4605e-015 -8.74653e-015
lhumerus -60.0263 -5.18006 81.4216
lradius 82.3897
lwrist 8.29075
lhand -22.4303 22.884
lfingers 7.12502
lthumb 3.99329 52.8263
rfemur -2.61091 6.29281 21.7763
rtibia 28.238
rfoot 34.2494 1.70628
rtoes 17.2856
lfemur -5.77038 -5.0587 -21.6173
ltibia 29.7937
lfoot 34.957 -9.40399
ltoes -2.27951
142
root 0.708732 20.53 -8.06726 8.36021 4.03368 1.40676
lowerback 0.84619 -1.14005 -1.95462
upperback -0.594594 -1.51958 2.84463
thorax -0.956546 -0.73731 4.04763
lowerneck -15.515 -3.77094 -8.97172
upperneck 26.6183 -4.54531 5.8154
head 11.5988 -2.23803 3.01768
rclavicle -1.09332e-015 -1.59028e-014
rhumerus -68.8254 17.9621 -82.7416
rradius 83.2477
rwrist 2.63443
rhand -8.54159 17.3337
rfingers 7.12502
rthumb 17.3877 -11.9086
lclavicle -1.09332e-015 -1.59028e-014
lhumerus -61.1575 -4.65522 80.66
lradius 83.5716
lwrist 7.9154
lhand -22.3452 22.3557
lfingers 7.12502
lthumb 4.07547 52.2965
rfemur -2.96378 6.45873 21.9815
rtibia 30.0694
rfoot 34.4906 1.7069
rtoes 20.0274
lfemur -6.21269 -4.75808 -21.8651
ltibia 31.6661
lfoot 33.9124 -11.1198
ltoes -3.33168
143
root 0.702483 20.7532 -7.89683 7.59483 4.11756 1.27071
lowerback 1.36831 -1.14264 -1.91732
upperback -0.507638 -1.5252 2.97951
thorax -1.15713 -0.737732 4.17808
lowerneck -15.171 -3.78412 -9.15242
upperneck 26.5401 -4.53971 5.80451
head 11.5045 -2.25989 3.04661
rclavicle 2.27608e-014 -3.26007e-014
rhumerus -69.8613 18.3661 -82.2917
rradius 84.5647
rwrist 3.40366
rhand -9.01501 17.8706
rfingers 7.12502
rthumb 16.932 -11.4114
lclavicle 2.27608e-014 -3.26007e-014
lhumerus -62.266 -4.07308 79.9211
lradius 84.4536
lwrist 7.67957
lhand -22.02 20.8135
lfingers 7.12502
lthumb 4.38945 50.748
rfemur -3.04699 6.43873 22.382
rtibia 31.8195
rfoot 35.0822 0.657379
rtoes 20.268
lfemur -6.47095 -4.44421 -22.0526
ltibia 33.6705
lfoot 34.3957 -11.4798
ltoes -2.23699
144
root 0.700464 20.9737 -7.73181 6.64896 4.08561 1.07063
lowerback 2.17828 -1.05187 -1.73995
upperback -0.376976 -1.40425 3.0231
thorax -1.49106 -0.674443 4.13769
lowerneck -14.8803 -3.7982 -9.20473
upperneck 26.7091 -4.59938 5.87126
head 11.5194 -2.28997 3.07761
rclavicle -5.36719e-015 4.77083e-015
rhumerus -70.9619 18.31 -81.7986
rradius 85.8863
rwrist 3.99117
rhand -8.62002 18.2087
rfingers 7.12502
rthumb 17.3122 -11.0402
lclavicle -5.36719e-015 4.77083e-015
lhumerus -63.3614 -3.72876 79.0395
lradius 85.2468
lwrist 7.90666
lhand -21.2555 18.6133
lfingers 7.12502
lthumb 5.12766 48.5312
rfemur -3.003 6.18164 22.8168
rtibia 33.378
rfoot 36.0047 -0.888946
rtoes 19.3569
lfemur -6.57445 -3.98173 -22.2096
ltibia 35.6105
lfoot 36.2614 -10.394
ltoes 1.83346
145
root 0.697132 21.1867 -7.57224 5.83303 4.09292 0.667304
lowerback 2.89965 -0.971467 -1.29792
upperback -0.213405 -1.28432 3.09378
thorax -1.74586 -0.615973 3.971
lowerneck -14.7933 -3.8677 -9.20238
upperneck 26.9543 -4.7059 5.83026
head 11.6053 -2.34609 3.05154
rclavicle -1.2921e-015 -4.77083e-015
rhumerus -71.9098 18.0777 -81.2701
rradius 87.14
rwrist 4.16955
rhand -8.29261 18.1545
rfingers 7.12502
rthumb 17.6273 -11.0664
lclavicle -1.2921e-015 -4.77083e-015
lhumerus -64.2349 -3.40099 78.0913
lradius 85.92
lwrist 8.37415
lhand -20.9038 18.1805
lfingers 7.12502
lthumb 5.46724 48.0899
rfemur -3.12187 5.79753 23.4511
rtibia 34.7359
rfoot 36.5582 -2.99278
rtoes 20.8214
lfemur -6.81009 -3.47604 -22.0942
ltibia 37.3997
lfoot 37.7813 -9.21214
ltoes 5.5221
146
root 0.689422 21.3919 -7.40574 5.01092 4.16989 0.377795
lowerback 3.51866 -0.976814 -1.05588
upperback 0.0327222 -1.2817 3.21916
thorax -1.84269 -0.617711 3.97475
lowerneck -14.7147 -3.87893 -9.30628
upperneck 27.1814 -4.67535 5.71392
head 11.6755 -2.36042 3.03511
rclavicle -3.55825e-014 2.94201e-014
rhumerus -72.4743 18.0874 -80.6601
rradius 88.052
rwrist 3.90023
rhand -8.3534 18.0756
rfingers 7.12502
rthumb 17.5688 -11.1506
lclavicle -3.55825e-014 2.94201e-014
lhumerus -64.9502 -2.8275 77.1816
lradius 86.4109
lwrist 8.97308
lhand -21.0765 20.4011
lfingers 7.12502
lthumb 5.30052 50.3148
rfemur -3.16193 5.27697 23.9669
rtibia 35.934
rfoot 36.4315 -5.40014
rtoes 22.7429
lfemur -6.94757 -2.93503 -22.0877
ltibia 39.0258
lfoot 38.1193 -9.31931
ltoes 5.68078
147
root 0.680198 21.578 -7.23974 4.1544 4.13822 0.231178
lowerback 4.13483 -0.974462 -0.998187
upperback 0.273001 -1.27531 3.29141
thorax -1.94107 -0.616022 4.02782
lowerneck -14.4878 -3.80152 -9.48242
upperneck 27.4324 -4.56612 5.77744
head 11.7237 -2.32785 3.11269
rclavicle -4.67144e-015 9.54166e-015
rhumerus -72.9928 18.0547 -80.0706
rradius 88.7913
rwrist 3.19142
rhand -8.67702 18.2369
rfingers 7.12502
rthumb 17.2573 -11.0169
lclavicle -4.67144e-015 9.54166e-015
lhumerus -65.6123 -2.32502 76.1994
lradius 86.6671
lwrist 9.66534
lhand -20.9412 23.8327
lfingers 7.12502
lthumb 5.43112 53.7431
rfemur -3.11796 4.77319 24.3058
rtibia 36.9736
rfoot 36.2558 -7.37144
rtoes 23.2432
lfemur -6.96806 -2.32434 -22.2549
ltibia 40.5055
lfoot 38.0138 -10.0984
ltoes 4.11941
